<svg width="44" height="45" viewBox="0 0 44 45" fill="none" xmlns="http://www.w3.org/2000/svg">
<path d="M39.0644 27.098H44V23H29.733C29.4735 27.2521 25.9028 30.626 21.5381 30.626C17.1734 30.626 13.6027 27.2521 13.3432 23H-1.49006e-05L-1.52588e-05 27.098H4.07406C4.29203 27.9402 4.57747 28.767 4.92001 29.5784C5.30925 30.4925 5.77116 31.3655 6.30572 32.1923L2.74025 35.7203L8.35573 41.2768L11.9264 37.7437C12.7516 38.2624 13.6235 38.7143 14.5317 39.0943C15.5541 39.5205 16.6077 39.8543 17.682 40.0854V45H25.6329V40.0443C26.645 39.8133 27.6362 39.4949 28.6015 39.0943C29.5773 38.6886 30.5062 38.2007 31.3833 37.6359L34.8917 41.1074L40.5124 35.5457L36.9469 32.0177C37.4348 31.2423 37.8552 30.4258 38.2184 29.5784C38.561 28.767 38.8464 27.9402 39.0644 27.098Z" fill="#1C2752"/>
<path d="M36.9436 5.17054V13.4455C36.9436 14.0071 36.4796 14.4627 35.9078 14.4627H35.1741C34.6022 14.4627 34.1383 14.0071 34.1383 13.4455V3.01968C32.0127 1.63169 29.6282 0.59334 27.0711 0V14.3567C27.0711 14.9183 26.6071 15.3739 26.0353 15.3739H17.9431C17.3712 15.3739 16.9073 14.9183 16.9073 14.3567V0C14.3825 0.59334 11.998 1.64228 9.87248 3.01968V13.4455C9.87248 14.0071 9.40853 14.4627 8.83668 14.4627H8.10299C7.53114 14.4627 7.06718 14.0071 7.06718 13.4455V5.17054C2.72977 9.112 0 14.7381 0 21H44C44.0108 14.7381 41.2918 9.112 36.9436 5.17054Z" fill="#FFB342"/>
</svg>
